<svg width="50%" height="50%" viewBox="0 0 581 433" fill="none" xmlns="http://www.w3.org/2000/svg">
    <rect width="581" height="433" fill="#E5E5E5" />
    <rect width="581" height="433" fill="white" />
    <path className="logoSplash"
        d="M373.5 184C373.5 229.555 336.348 266.5 290.5 266.5C244.652 266.5 207.5 229.555 207.5 184C207.5 138.445 244.652 101.5 290.5 101.5C336.348 101.5 373.5 138.445 373.5 184Z"
        stroke="black" stroke-width="3" />
    <path className="logoSplash"
        d="M304.727 173.614L298.568 174.705C298.311 173.917 297.902 173.167 297.341 172.455C296.795 171.742 296.053 171.159 295.114 170.705C294.174 170.25 293 170.023 291.591 170.023C289.667 170.023 288.061 170.455 286.773 171.318C285.485 172.167 284.841 173.265 284.841 174.614C284.841 175.78 285.273 176.72 286.136 177.432C287 178.144 288.394 178.727 290.318 179.182L295.864 180.455C299.076 181.197 301.47 182.341 303.045 183.886C304.621 185.432 305.409 187.439 305.409 189.909C305.409 192 304.803 193.864 303.591 195.5C302.394 197.121 300.72 198.394 298.568 199.318C296.432 200.242 293.955 200.705 291.136 200.705C287.227 200.705 284.038 199.871 281.568 198.205C279.098 196.523 277.583 194.136 277.023 191.045L283.591 190.045C284 191.758 284.841 193.053 286.114 193.932C287.386 194.795 289.045 195.227 291.091 195.227C293.318 195.227 295.098 194.765 296.432 193.841C297.765 192.902 298.432 191.758 298.432 190.409C298.432 189.318 298.023 188.402 297.205 187.659C296.402 186.917 295.167 186.356 293.5 185.977L287.591 184.682C284.333 183.939 281.924 182.758 280.364 181.136C278.818 179.515 278.045 177.462 278.045 174.977C278.045 172.917 278.621 171.114 279.773 169.568C280.924 168.023 282.515 166.818 284.545 165.955C286.576 165.076 288.902 164.636 291.523 164.636C295.295 164.636 298.265 165.455 300.432 167.091C302.598 168.712 304.03 170.886 304.727 173.614Z"
        fill="black" />
    <path className="logoSplash"
        d="M319.896 145.404L339.225 189.633L310.586 228.486L262.618 223.111L243.29 178.882L271.929 140.028L319.896 145.404Z"
        stroke="black" stroke-width="3" />
    <path className="logoSplash"
        d="M336.368 166.989L328.851 214.668L283.801 231.997L246.268 201.648L253.785 153.969L298.835 136.639L336.368 166.989Z"
        stroke="black" stroke-width="3" />
    <path className="part-s"
        d="M158.984 325.464C156.68 325.464 154.461 325.123 152.328 324.44C150.195 323.8 148.317 322.819 146.696 321.496C145.757 321.667 144.776 321.795 143.752 321.88C142.728 321.965 141.661 322.008 140.552 322.008C139.613 322.008 138.547 321.88 137.352 321.624C136.157 321.368 135.24 320.941 134.6 320.344C134.515 320.259 134.472 320.173 134.472 320.088C134.472 319.917 134.536 319.789 134.664 319.704C134.835 319.661 134.984 319.704 135.112 319.832C135.624 320.259 136.413 320.557 137.48 320.728C138.547 320.941 139.571 321.048 140.552 321.048C142.429 321.048 144.157 320.92 145.736 320.664C144.328 319.299 143.219 317.656 142.408 315.736C141.597 313.816 141.235 311.619 141.32 309.144C139.101 308.291 137.459 307.053 136.392 305.432C135.325 303.811 134.792 302.083 134.792 300.248C134.792 298.456 135.283 296.749 136.264 295.128C137.288 293.464 138.76 292.099 140.68 291.032C142.643 289.965 145.032 289.432 147.848 289.432C149.043 289.432 150.344 289.56 151.752 289.816C154.269 287.896 156.808 286.488 159.368 285.592C161.928 284.696 164.019 284.248 165.64 284.248C168.285 284.248 170.227 284.909 171.464 286.232C172.701 287.512 173.32 289.133 173.32 291.096C173.32 293.315 172.573 295.725 171.08 298.328C169.587 300.931 167.411 303.235 164.552 305.24C164.381 307.459 163.656 309.656 162.376 311.832C161.139 313.965 159.368 315.864 157.064 317.528C154.76 319.192 151.88 320.408 148.424 321.176C150.813 322.797 153.565 323.608 156.68 323.608C159.027 323.608 161.373 323.096 163.72 322.072C166.109 321.048 168.285 319.491 170.248 317.4C172.253 315.267 173.853 312.579 175.048 309.336C176.243 306.051 176.84 302.168 176.84 297.688C176.84 296.792 176.819 295.875 176.776 294.936C176.733 293.955 176.648 292.952 176.52 291.928C176.392 290.648 176.115 289.283 175.688 287.832C175.304 286.381 174.941 284.888 174.6 283.352C174.259 281.816 174.088 280.301 174.088 278.808C174.088 277.4 174.301 276.035 174.728 274.712C175.197 273.347 176.029 272.067 177.224 270.872C178.205 269.848 179.357 269.101 180.68 268.632C182.045 268.12 183.368 267.864 184.648 267.864C186.781 267.864 188.403 268.419 189.512 269.528C189.939 269.955 190.237 270.381 190.408 270.808C190.579 271.192 190.664 271.555 190.664 271.896C190.664 272.579 190.408 272.92 189.896 272.92C189.555 272.92 189.213 272.728 188.872 272.344C188.232 271.619 187.357 271.064 186.248 270.68C185.181 270.253 184.093 270.04 182.984 270.04C182.131 270.04 181.299 270.168 180.488 270.424C179.72 270.68 179.037 271.107 178.44 271.704C177.501 272.643 176.819 273.688 176.392 274.84C176.008 275.949 175.816 277.123 175.816 278.36C175.816 279.939 176.051 281.56 176.52 283.224C177.032 284.888 177.608 286.509 178.248 288.088C178.888 289.624 179.4 291.075 179.784 292.44C180.936 296.323 181.512 299.864 181.512 303.064C181.512 306.819 180.851 310.104 179.528 312.92C178.248 315.736 176.499 318.061 174.28 319.896C172.104 321.773 169.672 323.16 166.984 324.056C164.339 324.995 161.672 325.464 158.984 325.464ZM164.616 303.448C167.091 301.485 169.011 299.352 170.376 297.048C171.741 294.701 172.424 292.568 172.424 290.648C172.424 289.027 171.869 287.683 170.76 286.616C169.693 285.549 167.987 285.016 165.64 285.016C164.147 285.016 162.248 285.421 159.944 286.232C157.683 287.043 155.421 288.323 153.16 290.072C156.829 291.011 159.624 292.739 161.544 295.256C163.464 297.731 164.488 300.461 164.616 303.448ZM141.384 307.928C141.512 306.904 141.704 305.795 141.96 304.6C142.685 301.443 143.859 298.712 145.48 296.408C147.144 294.061 148.957 292.077 150.92 290.456C150.408 290.371 149.917 290.307 149.448 290.264C148.979 290.221 148.509 290.2 148.04 290.2C145.48 290.2 143.304 290.691 141.512 291.672C139.763 292.653 138.419 293.912 137.48 295.448C136.584 296.984 136.136 298.563 136.136 300.184C136.136 301.72 136.563 303.192 137.416 304.6C138.269 306.008 139.592 307.117 141.384 307.928ZM147.976 309.208C151.133 309.208 154.035 308.717 156.68 307.736C159.368 306.755 161.757 305.517 163.848 304.024C163.891 302.019 163.464 300.12 162.568 298.328C161.715 296.493 160.435 294.915 158.728 293.592C157.021 292.227 154.909 291.267 152.392 290.712C150.429 292.291 148.637 294.275 147.016 296.664C145.395 299.011 144.221 301.763 143.496 304.92C143.197 306.115 143.005 307.309 142.92 308.504C144.413 308.973 146.099 309.208 147.976 309.208ZM147.4 320.408C150.771 319.725 153.608 318.637 155.912 317.144C158.259 315.651 160.072 313.923 161.352 311.96C162.632 309.955 163.421 307.907 163.72 305.816C161.672 307.139 159.325 308.227 156.68 309.08C154.035 309.891 151.133 310.296 147.976 310.296C147.037 310.296 146.12 310.232 145.224 310.104C144.371 309.976 143.581 309.827 142.856 309.656C142.813 312.003 143.197 314.093 144.008 315.928C144.861 317.72 145.992 319.213 147.4 320.408ZM191.759 319.32C189.967 319.32 189.071 318.317 189.071 316.312C189.071 315.544 189.22 314.627 189.519 313.56C189.818 312.493 190.287 311.32 190.927 310.04C191.268 309.272 191.738 308.355 192.335 307.288C192.932 306.179 193.466 305.091 193.935 304.024C194.447 302.957 194.703 302.104 194.703 301.464C194.703 300.824 194.362 300.504 193.679 300.504C193.38 300.504 192.996 300.589 192.527 300.76C192.058 300.888 191.418 301.059 190.607 301.272C190.266 302.125 189.711 303.32 188.943 304.856C188.218 306.349 187.407 307.885 186.511 309.464C185.615 311.043 184.762 312.408 183.951 313.56C183.951 313.56 183.93 313.581 183.887 313.624C183.887 313.624 183.844 313.624 183.759 313.624C183.674 313.624 183.546 313.603 183.375 313.56C183.247 313.475 183.204 313.411 183.247 313.368C183.93 312.387 184.634 311.256 185.359 309.976C186.084 308.653 186.767 307.352 187.407 306.072C188.09 304.792 188.644 303.704 189.071 302.808C189.54 301.869 189.796 301.315 189.839 301.144C189.199 300.931 188.687 300.44 188.303 299.672C187.962 298.861 187.791 298.051 187.791 297.24C187.791 296.515 187.962 295.896 188.303 295.384C188.644 294.872 189.156 294.616 189.839 294.616C190.351 294.616 190.692 294.893 190.863 295.448C191.076 295.96 191.183 296.579 191.183 297.304C191.183 298.243 191.076 299.181 190.863 300.12C190.863 300.12 191.098 300.077 191.567 299.992C192.036 299.907 192.591 299.843 193.231 299.8C193.871 299.715 194.426 299.672 194.895 299.672C196.303 299.672 197.007 300.355 197.007 301.72C197.007 302.573 196.772 303.683 196.303 305.048C195.834 306.371 195.236 307.907 194.511 309.656C193.06 313.112 192.335 315.544 192.335 316.952C192.335 317.805 192.612 318.232 193.167 318.232C193.85 318.232 194.81 317.677 196.047 316.568C197.284 315.459 198.415 314.072 199.439 312.408C200.506 310.701 201.807 308.419 203.343 305.56C203.386 305.475 203.45 305.432 203.535 305.432C203.663 305.432 203.77 305.496 203.855 305.624C203.983 305.709 204.026 305.795 203.983 305.88C201.636 310.317 199.588 313.667 197.839 315.928C196.09 318.189 194.063 319.32 191.759 319.32ZM213.016 295.32C212.419 295.32 211.907 295.128 211.48 294.744C211.096 294.317 210.904 293.827 210.904 293.272C210.904 292.547 211.139 291.928 211.608 291.416C212.12 290.904 212.717 290.648 213.4 290.648C213.997 290.648 214.509 290.861 214.936 291.288C215.363 291.715 215.576 292.248 215.576 292.888C215.576 293.571 215.32 294.147 214.808 294.616C214.296 295.085 213.699 295.32 213.016 295.32ZM205.976 319.32C205.208 319.32 204.589 319.043 204.12 318.488C203.693 317.891 203.48 317.123 203.48 316.184C203.48 314.989 203.715 313.709 204.184 312.344C204.696 310.979 205.272 309.613 205.912 308.248C206.595 306.84 207.192 305.517 207.704 304.28C207.917 303.683 208.109 303.149 208.28 302.68C208.451 302.211 208.536 301.827 208.536 301.528C208.536 301.101 208.344 300.888 207.96 300.888C207.448 300.888 206.936 301.208 206.424 301.848C205.912 302.488 205.443 303.213 205.016 304.024C204.632 304.792 204.312 305.411 204.056 305.88C203.416 307.117 202.712 308.397 201.944 309.72C201.219 311.043 200.472 312.259 199.704 313.368C199.704 313.411 199.661 313.432 199.576 313.432C199.491 313.432 199.384 313.368 199.256 313.24C199.128 313.112 199.085 313.027 199.128 312.984C199.939 311.832 200.685 310.616 201.368 309.336C202.093 308.013 202.755 306.755 203.352 305.56C203.779 304.664 204.248 303.747 204.76 302.808C205.315 301.827 205.955 301.016 206.68 300.376C207.405 299.693 208.237 299.352 209.176 299.352C209.603 299.352 210.093 299.459 210.648 299.672C211.288 299.928 211.608 300.483 211.608 301.336C211.608 301.763 211.523 302.275 211.352 302.872C211.224 303.427 211.032 304.067 210.776 304.792C210.221 306.243 209.603 307.715 208.92 309.208C208.28 310.659 207.683 312.131 207.128 313.624C206.701 314.776 206.488 315.8 206.488 316.696C206.488 317.677 206.808 318.168 207.448 318.168C208.045 318.168 208.963 317.635 210.2 316.568C211.437 315.459 212.589 314.072 213.656 312.408C214.723 310.701 216.003 308.419 217.496 305.56C217.539 305.475 217.624 305.432 217.752 305.432C217.837 305.432 217.923 305.496 218.008 305.624C218.136 305.709 218.179 305.795 218.136 305.88C215.875 310.275 213.848 313.624 212.056 315.928C210.264 318.189 208.237 319.32 205.976 319.32Z"
        fill="black" />
    <path className="part-h"
        d="M237.16 319.32C235.368 319.32 234.472 318.317 234.472 316.312C234.472 314.648 235.069 312.557 236.264 310.04C236.648 309.315 237.117 308.461 237.672 307.48C238.269 306.456 238.781 305.475 239.208 304.536C239.677 303.555 239.912 302.787 239.912 302.232C239.912 301.635 239.613 301.336 239.016 301.336C238.248 301.336 237.416 301.784 236.52 302.68C235.624 303.533 234.728 304.643 233.832 306.008C232.979 307.331 232.168 308.739 231.4 310.232C230.675 311.725 230.035 313.112 229.48 314.392C228.968 315.629 228.605 316.589 228.392 317.272C228.221 317.955 227.944 318.381 227.56 318.552C227.219 318.723 226.813 318.808 226.344 318.808C225.917 318.765 225.469 318.829 225 319C225.896 316.056 226.856 312.941 227.88 309.656C228.904 306.328 230.013 302.979 231.208 299.608C232.403 296.237 233.704 293.016 235.112 289.944C236.563 286.829 238.184 284.035 239.976 281.56C241.085 280.067 242.195 278.936 243.304 278.168C244.456 277.4 245.48 277.016 246.376 277.016C247.059 277.016 247.592 277.251 247.976 277.72C248.403 278.147 248.616 278.808 248.616 279.704C248.616 280.387 248.467 281.24 248.168 282.264C247.869 283.245 247.357 284.355 246.632 285.592C245.779 287.128 244.755 288.707 243.56 290.328C242.408 291.949 241.192 293.485 239.912 294.936C238.675 296.387 237.48 297.645 236.328 298.712C235.219 299.736 234.28 300.44 233.512 300.824C233.384 301.123 233.149 301.763 232.808 302.744C232.467 303.725 232.104 304.835 231.72 306.072C231.379 307.267 231.037 308.419 230.696 309.528C231.507 307.992 232.445 306.477 233.512 304.984C234.621 303.448 235.752 302.189 236.904 301.208C238.056 300.184 239.101 299.672 240.04 299.672C241.619 299.672 242.408 300.376 242.408 301.784C242.408 302.637 242.173 303.725 241.704 305.048C241.235 306.371 240.637 307.907 239.912 309.656C239.144 311.448 238.568 312.963 238.184 314.2C237.843 315.395 237.672 316.333 237.672 317.016C237.672 317.827 237.949 318.232 238.504 318.232C239.101 318.232 240.061 317.677 241.384 316.568C242.621 315.459 243.773 314.072 244.84 312.408C245.907 310.701 247.187 308.397 248.68 305.496C248.765 305.411 248.829 305.368 248.872 305.368C249 305.368 249.128 305.432 249.256 305.56C249.427 305.688 249.469 305.795 249.384 305.88C247.805 308.824 246.376 311.299 245.096 313.304C243.859 315.309 242.621 316.824 241.384 317.848C240.147 318.829 238.739 319.32 237.16 319.32ZM233.896 299.48C235.091 298.755 236.413 297.603 237.864 296.024C239.357 294.403 240.808 292.589 242.216 290.584C243.624 288.579 244.776 286.68 245.672 284.888C246.227 283.779 246.611 282.797 246.824 281.944C247.08 281.048 247.208 280.28 247.208 279.64C247.208 278.445 246.867 277.848 246.184 277.848C245.672 277.848 245.011 278.232 244.2 279C243.432 279.768 242.557 281.027 241.576 282.776C240.765 284.227 239.933 285.827 239.08 287.576C238.269 289.283 237.501 290.968 236.776 292.632C236.051 294.253 235.432 295.683 234.92 296.92C234.408 298.157 234.067 299.011 233.896 299.48ZM249.049 319.32C247.598 319.32 246.595 318.915 246.041 318.104C245.529 317.293 245.273 316.291 245.273 315.096C245.273 313.859 245.486 312.557 245.913 311.192C246.339 309.827 246.745 308.739 247.129 307.928C248.494 305.069 250.393 302.893 252.825 301.4C255.299 299.864 257.838 299.096 260.441 299.096C260.782 299.096 261.123 299.096 261.465 299.096C261.849 299.096 262.211 299.139 262.553 299.224C263.406 299.352 263.833 299.459 263.833 299.544C263.833 299.629 263.513 299.715 262.873 299.8C262.275 299.885 261.827 299.928 261.529 299.928C259.438 299.928 257.561 300.483 255.897 301.592C254.275 302.701 252.889 304.109 251.737 305.816C250.585 307.523 249.689 309.272 249.049 311.064C248.451 312.813 248.153 314.328 248.153 315.608C248.153 316.419 248.281 317.08 248.536 317.592C248.835 318.104 249.262 318.36 249.817 318.36C250.414 318.36 251.097 317.955 251.865 317.144C252.633 316.333 253.379 315.352 254.105 314.2C254.83 313.005 255.491 311.853 256.089 310.744C256.686 309.592 257.134 308.717 257.433 308.12L260.185 302.36C260.91 302.189 261.635 301.997 262.361 301.784C263.129 301.528 263.854 301.251 264.537 300.952C263.811 302.189 263.107 303.491 262.425 304.856C261.785 306.221 261.123 307.565 260.441 308.888C259.929 309.869 259.417 311.021 258.905 312.344C258.435 313.667 258.201 314.861 258.201 315.928V316.184C258.201 316.525 258.243 316.909 258.329 317.336C258.414 317.72 258.649 317.912 259.033 317.912C259.502 317.912 260.099 317.635 260.825 317.08C261.55 316.483 262.062 316.035 262.361 315.736C263.726 314.371 264.899 312.856 265.881 311.192C266.905 309.528 267.843 307.843 268.697 306.136C268.782 306.051 268.846 306.008 268.889 306.008C269.23 306.008 269.358 306.179 269.273 306.52C269.273 306.52 269.166 306.712 268.953 307.096C268.782 307.48 268.675 307.693 268.633 307.736C267.822 309.229 267.011 310.659 266.201 312.024C265.39 313.389 264.43 314.691 263.321 315.928C262.638 316.611 261.806 317.336 260.825 318.104C259.843 318.872 258.862 319.256 257.881 319.256C256.942 319.256 256.281 318.893 255.897 318.168C255.513 317.4 255.321 316.547 255.321 315.608C255.321 315.011 255.363 314.435 255.449 313.88C255.577 313.283 255.705 312.771 255.833 312.344C255.534 313.112 255.001 314.051 254.233 315.16C253.507 316.269 252.675 317.251 251.737 318.104C250.841 318.915 249.945 319.32 249.049 319.32ZM273.009 319.32C271.217 319.32 270.321 318.317 270.321 316.312C270.321 315.544 270.47 314.627 270.769 313.56C271.068 312.493 271.537 311.32 272.177 310.04C272.518 309.272 272.988 308.355 273.585 307.288C274.182 306.179 274.716 305.091 275.185 304.024C275.697 302.957 275.953 302.104 275.953 301.464C275.953 300.824 275.612 300.504 274.929 300.504C274.63 300.504 274.246 300.589 273.777 300.76C273.308 300.888 272.668 301.059 271.857 301.272C271.516 302.125 270.961 303.32 270.193 304.856C269.468 306.349 268.657 307.885 267.761 309.464C266.865 311.043 266.012 312.408 265.201 313.56C265.201 313.56 265.18 313.581 265.137 313.624C265.137 313.624 265.094 313.624 265.009 313.624C264.924 313.624 264.796 313.603 264.625 313.56C264.497 313.475 264.454 313.411 264.497 313.368C265.18 312.387 265.884 311.256 266.609 309.976C267.334 308.653 268.017 307.352 268.657 306.072C269.34 304.792 269.894 303.704 270.321 302.808C270.79 301.869 271.046 301.315 271.089 301.144C270.449 300.931 269.937 300.44 269.553 299.672C269.212 298.861 269.041 298.051 269.041 297.24C269.041 296.515 269.212 295.896 269.553 295.384C269.894 294.872 270.406 294.616 271.089 294.616C271.601 294.616 271.942 294.893 272.113 295.448C272.326 295.96 272.433 296.579 272.433 297.304C272.433 298.243 272.326 299.181 272.113 300.12C272.113 300.12 272.348 300.077 272.817 299.992C273.286 299.907 273.841 299.843 274.481 299.8C275.121 299.715 275.676 299.672 276.145 299.672C277.553 299.672 278.257 300.355 278.257 301.72C278.257 302.573 278.022 303.683 277.553 305.048C277.084 306.371 276.486 307.907 275.761 309.656C274.31 313.112 273.585 315.544 273.585 316.952C273.585 317.805 273.862 318.232 274.417 318.232C275.1 318.232 276.06 317.677 277.297 316.568C278.534 315.459 279.665 314.072 280.689 312.408C281.756 310.701 283.057 308.419 284.593 305.56C284.636 305.475 284.7 305.432 284.785 305.432C284.913 305.432 285.02 305.496 285.105 305.624C285.233 305.709 285.276 305.795 285.233 305.88C282.886 310.317 280.838 313.667 279.089 315.928C277.34 318.189 275.313 319.32 273.009 319.32ZM294.266 295.32C293.669 295.32 293.157 295.128 292.73 294.744C292.346 294.317 292.154 293.827 292.154 293.272C292.154 292.547 292.389 291.928 292.858 291.416C293.37 290.904 293.967 290.648 294.65 290.648C295.247 290.648 295.759 290.861 296.186 291.288C296.613 291.715 296.826 292.248 296.826 292.888C296.826 293.571 296.57 294.147 296.058 294.616C295.546 295.085 294.949 295.32 294.266 295.32ZM287.226 319.32C286.458 319.32 285.839 319.043 285.37 318.488C284.943 317.891 284.73 317.123 284.73 316.184C284.73 314.989 284.965 313.709 285.434 312.344C285.946 310.979 286.522 309.613 287.162 308.248C287.845 306.84 288.442 305.517 288.954 304.28C289.167 303.683 289.359 303.149 289.53 302.68C289.701 302.211 289.786 301.827 289.786 301.528C289.786 301.101 289.594 300.888 289.21 300.888C288.698 300.888 288.186 301.208 287.674 301.848C287.162 302.488 286.693 303.213 286.266 304.024C285.882 304.792 285.562 305.411 285.306 305.88C284.666 307.117 283.962 308.397 283.194 309.72C282.469 311.043 281.722 312.259 280.954 313.368C280.954 313.411 280.911 313.432 280.826 313.432C280.741 313.432 280.634 313.368 280.506 313.24C280.378 313.112 280.335 313.027 280.378 312.984C281.189 311.832 281.935 310.616 282.618 309.336C283.343 308.013 284.005 306.755 284.602 305.56C285.029 304.664 285.498 303.747 286.01 302.808C286.565 301.827 287.205 301.016 287.93 300.376C288.655 299.693 289.487 299.352 290.426 299.352C290.853 299.352 291.343 299.459 291.898 299.672C292.538 299.928 292.858 300.483 292.858 301.336C292.858 301.763 292.773 302.275 292.602 302.872C292.474 303.427 292.282 304.067 292.026 304.792C291.471 306.243 290.853 307.715 290.17 309.208C289.53 310.659 288.933 312.131 288.378 313.624C287.951 314.776 287.738 315.8 287.738 316.696C287.738 317.677 288.058 318.168 288.698 318.168C289.295 318.168 290.213 317.635 291.45 316.568C292.687 315.459 293.839 314.072 294.906 312.408C295.973 310.701 297.253 308.419 298.746 305.56C298.789 305.475 298.874 305.432 299.002 305.432C299.087 305.432 299.173 305.496 299.258 305.624C299.386 305.709 299.429 305.795 299.386 305.88C297.125 310.275 295.098 313.624 293.306 315.928C291.514 318.189 289.487 319.32 287.226 319.32Z"
        fill="black" />
    <path className="part-n"
        d="M321.552 319.32C319.76 319.32 318.864 318.317 318.864 316.312C318.864 315.544 319.013 314.627 319.312 313.56C319.611 312.493 320.08 311.32 320.72 310.04C321.061 309.315 321.509 308.461 322.064 307.48C322.661 306.456 323.195 305.453 323.664 304.472C324.133 303.491 324.368 302.723 324.368 302.168C324.368 301.613 324.069 301.336 323.472 301.336C322.661 301.336 321.808 301.784 320.912 302.68C320.059 303.533 319.205 304.643 318.352 306.008C317.499 307.373 316.688 308.803 315.92 310.296C315.152 311.789 314.491 313.197 313.936 314.52C313.381 315.8 312.976 316.781 312.72 317.464C312.464 318.104 312.101 318.509 311.632 318.68C311.163 318.851 310.651 318.936 310.096 318.936C309.584 318.936 309.093 319.021 308.624 319.192C309.221 317.827 309.712 316.717 310.096 315.864C310.48 315.011 310.885 314.157 311.312 313.304C311.739 312.408 312.251 311.213 312.848 309.72C313.189 308.952 313.573 308.077 314 307.096C314.427 306.072 314.789 305.091 315.088 304.152C315.429 303.171 315.6 302.403 315.6 301.848C315.6 301.208 315.387 300.888 314.96 300.888C314.448 300.888 313.936 301.208 313.424 301.848C312.912 302.488 312.443 303.213 312.016 304.024C311.632 304.792 311.312 305.411 311.056 305.88C310.416 307.117 309.776 308.333 309.136 309.528C308.496 310.723 307.771 311.875 306.96 312.984H306.896C306.768 312.984 306.619 312.941 306.448 312.856C306.32 312.771 306.277 312.707 306.32 312.664C307.045 311.512 307.728 310.36 308.368 309.208C309.051 308.056 309.669 306.904 310.224 305.752C310.693 304.856 311.205 303.917 311.76 302.936C312.315 301.912 312.955 301.059 313.68 300.376C314.405 299.693 315.237 299.352 316.176 299.352C316.603 299.352 317.093 299.459 317.648 299.672C318.245 299.928 318.544 300.504 318.544 301.4C318.544 301.869 318.459 302.445 318.288 303.128C318.117 303.811 317.883 304.579 317.584 305.432C318.693 303.853 319.867 302.509 321.104 301.4C322.341 300.248 323.472 299.672 324.496 299.672C326.117 299.672 326.928 300.44 326.928 301.976C326.928 302.915 326.651 304.067 326.096 305.432C325.925 305.901 325.605 306.648 325.136 307.672C324.709 308.653 324.261 309.763 323.792 311C323.365 312.195 322.981 313.347 322.64 314.456C322.299 315.565 322.128 316.483 322.128 317.208C322.128 317.976 322.363 318.36 322.832 318.36C323.131 318.36 323.515 318.232 323.984 317.976C324.496 317.677 325.093 317.208 325.776 316.568C327.013 315.459 328.165 314.051 329.232 312.344C330.341 310.637 331.643 308.355 333.136 305.496C333.136 305.411 333.179 305.368 333.264 305.368C333.392 305.368 333.52 305.432 333.648 305.56C333.776 305.688 333.797 305.795 333.712 305.88C332.176 308.867 330.768 311.363 329.488 313.368C328.251 315.331 326.992 316.824 325.712 317.848C324.475 318.829 323.088 319.32 321.552 319.32ZM333.486 319.32C332.035 319.32 331.033 318.915 330.478 318.104C329.966 317.293 329.71 316.291 329.71 315.096C329.71 313.859 329.923 312.557 330.35 311.192C330.777 309.827 331.182 308.739 331.566 307.928C332.931 305.069 334.83 302.893 337.262 301.4C339.737 299.864 342.275 299.096 344.878 299.096C345.219 299.096 345.561 299.096 345.902 299.096C346.286 299.096 346.649 299.139 346.99 299.224C347.843 299.352 348.27 299.459 348.27 299.544C348.27 299.629 347.95 299.715 347.31 299.8C346.713 299.885 346.265 299.928 345.966 299.928C343.875 299.928 341.998 300.483 340.334 301.592C338.713 302.701 337.326 304.109 336.174 305.816C335.022 307.523 334.126 309.272 333.486 311.064C332.889 312.813 332.59 314.328 332.59 315.608C332.59 316.419 332.718 317.08 332.974 317.592C333.273 318.104 333.699 318.36 334.254 318.36C334.851 318.36 335.534 317.955 336.302 317.144C337.07 316.333 337.817 315.352 338.542 314.2C339.267 313.005 339.929 311.853 340.526 310.744C341.123 309.592 341.571 308.717 341.87 308.12L344.622 302.36C345.347 302.189 346.073 301.997 346.798 301.784C347.566 301.528 348.291 301.251 348.974 300.952C348.249 302.189 347.545 303.491 346.862 304.856C346.222 306.221 345.561 307.565 344.878 308.888C344.366 309.869 343.854 311.021 343.342 312.344C342.873 313.667 342.638 314.861 342.638 315.928V316.184C342.638 316.525 342.681 316.909 342.766 317.336C342.851 317.72 343.086 317.912 343.47 317.912C343.939 317.912 344.537 317.635 345.262 317.08C345.987 316.483 346.499 316.035 346.798 315.736C348.163 314.371 349.337 312.856 350.318 311.192C351.342 309.528 352.281 307.843 353.134 306.136C353.219 306.051 353.283 306.008 353.326 306.008C353.667 306.008 353.795 306.179 353.71 306.52C353.71 306.52 353.603 306.712 353.39 307.096C353.219 307.48 353.113 307.693 353.07 307.736C352.259 309.229 351.449 310.659 350.638 312.024C349.827 313.389 348.867 314.691 347.758 315.928C347.075 316.611 346.243 317.336 345.262 318.104C344.281 318.872 343.299 319.256 342.318 319.256C341.379 319.256 340.718 318.893 340.334 318.168C339.95 317.4 339.758 316.547 339.758 315.608C339.758 315.011 339.801 314.435 339.886 313.88C340.014 313.283 340.142 312.771 340.27 312.344C339.971 313.112 339.438 314.051 338.67 315.16C337.945 316.269 337.113 317.251 336.174 318.104C335.278 318.915 334.382 319.32 333.486 319.32ZM357.447 319.32C355.655 319.32 354.759 318.317 354.759 316.312C354.759 315.544 354.908 314.627 355.207 313.56C355.505 312.493 355.975 311.32 356.615 310.04C356.956 309.272 357.425 308.355 358.023 307.288C358.62 306.179 359.153 305.091 359.623 304.024C360.135 302.957 360.391 302.104 360.391 301.464C360.391 300.824 360.049 300.504 359.367 300.504C359.068 300.504 358.684 300.589 358.215 300.76C357.745 300.888 357.105 301.059 356.295 301.272C355.953 302.125 355.399 303.32 354.631 304.856C353.905 306.349 353.095 307.885 352.199 309.464C351.303 311.043 350.449 312.408 349.639 313.56C349.639 313.56 349.617 313.581 349.575 313.624C349.575 313.624 349.532 313.624 349.447 313.624C349.361 313.624 349.233 313.603 349.062 313.56C348.934 313.475 348.892 313.411 348.934 313.368C349.617 312.387 350.321 311.256 351.047 309.976C351.772 308.653 352.455 307.352 353.095 306.072C353.777 304.792 354.332 303.704 354.759 302.808C355.228 301.869 355.484 301.315 355.527 301.144C354.887 300.931 354.375 300.44 353.991 299.672C353.649 298.861 353.479 298.051 353.479 297.24C353.479 296.515 353.649 295.896 353.991 295.384C354.332 294.872 354.844 294.616 355.527 294.616C356.039 294.616 356.38 294.893 356.551 295.448C356.764 295.96 356.871 296.579 356.871 297.304C356.871 298.243 356.764 299.181 356.551 300.12C356.551 300.12 356.785 300.077 357.255 299.992C357.724 299.907 358.279 299.843 358.919 299.8C359.559 299.715 360.113 299.672 360.583 299.672C361.991 299.672 362.695 300.355 362.695 301.72C362.695 302.573 362.46 303.683 361.991 305.048C361.521 306.371 360.924 307.907 360.199 309.656C358.748 313.112 358.023 315.544 358.023 316.952C358.023 317.805 358.3 318.232 358.855 318.232C359.537 318.232 360.497 317.677 361.735 316.568C362.972 315.459 364.103 314.072 365.127 312.408C366.193 310.701 367.495 308.419 369.031 305.56C369.073 305.475 369.137 305.432 369.223 305.432C369.351 305.432 369.457 305.496 369.543 305.624C369.671 305.709 369.713 305.795 369.671 305.88C367.324 310.317 365.276 313.667 363.527 315.928C361.777 318.189 359.751 319.32 357.447 319.32ZM369.424 319.32C367.973 319.32 366.97 318.915 366.416 318.104C365.904 317.293 365.648 316.291 365.648 315.096C365.648 313.859 365.861 312.557 366.288 311.192C366.714 309.827 367.12 308.739 367.504 307.928C368.869 305.069 370.768 302.893 373.2 301.4C375.674 299.864 378.213 299.096 380.816 299.096C381.157 299.096 381.498 299.096 381.84 299.096C382.224 299.096 382.586 299.139 382.928 299.224C383.781 299.352 384.208 299.459 384.208 299.544C384.208 299.629 383.888 299.715 383.248 299.8C382.65 299.885 382.202 299.928 381.904 299.928C379.813 299.928 377.936 300.483 376.272 301.592C374.65 302.701 373.264 304.109 372.112 305.816C370.96 307.523 370.064 309.272 369.424 311.064C368.826 312.813 368.528 314.328 368.528 315.608C368.528 316.419 368.656 317.08 368.911 317.592C369.21 318.104 369.637 318.36 370.192 318.36C370.789 318.36 371.472 317.955 372.24 317.144C373.008 316.333 373.754 315.352 374.48 314.2C375.205 313.005 375.866 311.853 376.464 310.744C377.061 309.592 377.509 308.717 377.808 308.12L380.56 302.36C381.285 302.189 382.01 301.997 382.736 301.784C383.504 301.528 384.229 301.251 384.912 300.952C384.186 302.189 383.482 303.491 382.8 304.856C382.16 306.221 381.498 307.565 380.816 308.888C380.304 309.869 379.792 311.021 379.28 312.344C378.81 313.667 378.576 314.861 378.576 315.928V316.184C378.576 316.525 378.618 316.909 378.704 317.336C378.789 317.72 379.024 317.912 379.408 317.912C379.877 317.912 380.474 317.635 381.2 317.08C381.925 316.483 382.437 316.035 382.736 315.736C384.101 314.371 385.274 312.856 386.256 311.192C387.28 309.528 388.218 307.843 389.072 306.136C389.157 306.051 389.221 306.008 389.264 306.008C389.605 306.008 389.733 306.179 389.648 306.52C389.648 306.52 389.541 306.712 389.328 307.096C389.157 307.48 389.05 307.693 389.008 307.736C388.197 309.229 387.386 310.659 386.576 312.024C385.765 313.389 384.805 314.691 383.696 315.928C383.013 316.611 382.181 317.336 381.2 318.104C380.218 318.872 379.237 319.256 378.256 319.256C377.317 319.256 376.656 318.893 376.272 318.168C375.888 317.4 375.696 316.547 375.696 315.608C375.696 315.011 375.738 314.435 375.824 313.88C375.952 313.283 376.08 312.771 376.208 312.344C375.909 313.112 375.376 314.051 374.608 315.16C373.882 316.269 373.05 317.251 372.112 318.104C371.216 318.915 370.32 319.32 369.424 319.32ZM384.616 344.6C383.933 344.6 383.4 344.365 383.016 343.896C382.589 343.469 382.376 342.808 382.376 341.912C382.376 341.187 382.547 340.333 382.888 339.352C383.187 338.371 383.677 337.261 384.36 336.024C385.213 334.488 386.216 332.909 387.368 331.288C388.52 329.667 389.715 328.131 390.952 326.68C392.232 325.229 393.448 323.971 394.6 322.904C395.752 321.837 396.712 321.112 397.48 320.728C397.651 320.301 397.885 319.619 398.184 318.68C398.525 317.741 398.867 316.76 399.208 315.736C399.549 314.669 399.848 313.773 400.104 313.048C400.36 312.323 400.488 311.96 400.488 311.96C400.317 312.216 399.976 312.728 399.464 313.496C398.952 314.264 398.291 315.117 397.48 316.056C396.712 316.952 395.859 317.72 394.92 318.36C393.981 319 393 319.32 391.976 319.32C390.312 319.32 389.48 318.424 389.48 316.632C389.48 315.139 390.141 312.963 391.464 310.104C391.848 309.336 392.275 308.419 392.744 307.352C393.256 306.285 393.683 305.261 394.024 304.28C394.408 303.256 394.6 302.424 394.6 301.784C394.6 301.187 394.387 300.888 393.96 300.888C393.448 300.888 392.936 301.208 392.424 301.848C391.912 302.488 391.443 303.213 391.016 304.024C390.632 304.792 390.312 305.411 390.056 305.88C389.416 307.117 388.691 308.483 387.88 309.976C387.069 311.427 386.259 312.707 385.448 313.816H385.384C385.299 313.816 385.171 313.752 385 313.624C384.829 313.496 384.765 313.411 384.808 313.368C385.661 312.259 386.472 310.979 387.24 309.528C388.051 308.077 388.755 306.755 389.352 305.56C389.779 304.664 390.269 303.725 390.824 302.744C391.379 301.763 392.019 300.952 392.744 300.312C393.597 299.587 394.451 299.224 395.304 299.224C395.901 299.224 396.392 299.416 396.776 299.8C397.16 300.141 397.352 300.675 397.352 301.4C397.352 301.571 397.331 301.741 397.288 301.912C397.288 302.083 397.267 302.275 397.224 302.488C397.053 303.299 396.755 304.301 396.328 305.496C395.944 306.648 395.411 308.035 394.728 309.656C393.235 313.197 392.488 315.651 392.488 317.016C392.488 317.741 392.723 318.104 393.192 318.104C393.832 318.104 394.792 317.528 396.072 316.376C396.968 315.565 397.864 314.413 398.76 312.92C399.699 311.384 400.573 309.763 401.384 308.056C402.195 306.349 402.877 304.771 403.432 303.32C404.029 301.827 404.435 300.717 404.648 299.992C405.373 299.821 406.184 299.608 407.08 299.352C407.976 299.096 408.765 298.819 409.448 298.52C408.979 299.032 408.424 299.885 407.784 301.08C407.187 302.232 406.611 303.469 406.056 304.792C405.501 306.072 405.032 307.16 404.648 308.056C404.051 309.549 403.539 310.915 403.112 312.152C402.728 313.347 402.344 314.52 401.96 315.672C401.619 316.824 401.192 318.104 400.68 319.512C402.685 318.232 404.285 317.016 405.48 315.864C406.675 314.712 407.72 313.432 408.616 312.024C409.512 310.616 410.515 308.867 411.624 306.776C411.709 306.648 411.816 306.584 411.944 306.584C412.328 306.584 412.413 306.755 412.2 307.096C411.261 308.845 410.408 310.36 409.64 311.64C408.915 312.877 408.125 314.008 407.272 315.032C406.461 316.013 405.501 316.952 404.392 317.848C403.283 318.701 401.917 319.619 400.296 320.6C399.528 322.52 398.653 324.675 397.672 327.064C396.691 329.453 395.645 331.779 394.536 334.04C393.427 336.344 392.253 338.349 391.016 340.056C389.949 341.549 388.819 342.68 387.624 343.448C386.472 344.216 385.469 344.6 384.616 344.6ZM384.808 343.704C385.32 343.704 385.96 343.32 386.728 342.552C387.539 341.784 388.435 340.547 389.416 338.84C390.227 337.389 391.037 335.789 391.848 334.04C392.701 332.333 393.491 330.648 394.216 328.984C394.941 327.32 395.56 325.869 396.072 324.632C396.584 323.395 396.925 322.563 397.096 322.136C396.2 322.648 395.219 323.437 394.152 324.504C393.085 325.571 391.997 326.787 390.888 328.152C389.779 329.517 388.733 330.947 387.752 332.44C386.771 333.933 385.939 335.363 385.256 336.728C384.232 338.819 383.72 340.547 383.72 341.912C383.72 343.107 384.083 343.704 384.808 343.704ZM412.611 319.32C411.16 319.32 410.158 318.915 409.603 318.104C409.091 317.293 408.835 316.291 408.835 315.096C408.835 313.859 409.048 312.557 409.475 311.192C409.902 309.827 410.307 308.739 410.691 307.928C412.056 305.069 413.955 302.893 416.387 301.4C418.862 299.864 421.4 299.096 424.003 299.096C424.344 299.096 424.686 299.096 425.027 299.096C425.411 299.096 425.774 299.139 426.115 299.224C426.968 299.352 427.395 299.459 427.395 299.544C427.395 299.629 427.075 299.715 426.435 299.8C425.838 299.885 425.39 299.928 425.091 299.928C423 299.928 421.123 300.483 419.459 301.592C417.838 302.701 416.451 304.109 415.299 305.816C414.147 307.523 413.251 309.272 412.611 311.064C412.014 312.813 411.715 314.328 411.715 315.608C411.715 316.419 411.843 317.08 412.099 317.592C412.398 318.104 412.824 318.36 413.379 318.36C413.976 318.36 414.659 317.955 415.427 317.144C416.195 316.333 416.942 315.352 417.667 314.2C418.392 313.005 419.054 311.853 419.651 310.744C420.248 309.592 420.696 308.717 420.995 308.12L423.747 302.36C424.472 302.189 425.198 301.997 425.923 301.784C426.691 301.528 427.416 301.251 428.099 300.952C427.374 302.189 426.67 303.491 425.987 304.856C425.347 306.221 424.686 307.565 424.003 308.888C423.491 309.869 422.979 311.021 422.467 312.344C421.998 313.667 421.763 314.861 421.763 315.928V316.184C421.763 316.525 421.806 316.909 421.891 317.336C421.976 317.72 422.211 317.912 422.595 317.912C423.064 317.912 423.662 317.635 424.387 317.08C425.112 316.483 425.624 316.035 425.923 315.736C427.288 314.371 428.462 312.856 429.443 311.192C430.467 309.528 431.406 307.843 432.259 306.136C432.344 306.051 432.408 306.008 432.451 306.008C432.792 306.008 432.92 306.179 432.835 306.52C432.835 306.52 432.728 306.712 432.515 307.096C432.344 307.48 432.238 307.693 432.195 307.736C431.384 309.229 430.574 310.659 429.763 312.024C428.952 313.389 427.992 314.691 426.883 315.928C426.2 316.611 425.368 317.336 424.387 318.104C423.406 318.872 422.424 319.256 421.443 319.256C420.504 319.256 419.843 318.893 419.459 318.168C419.075 317.4 418.883 316.547 418.883 315.608C418.883 315.011 418.926 314.435 419.011 313.88C419.139 313.283 419.267 312.771 419.395 312.344C419.096 313.112 418.563 314.051 417.795 315.16C417.07 316.269 416.238 317.251 415.299 318.104C414.403 318.915 413.507 319.32 412.611 319.32ZM443.74 319.32C441.948 319.32 441.052 318.317 441.052 316.312C441.052 315.544 441.201 314.627 441.5 313.56C441.798 312.493 442.268 311.32 442.908 310.04C443.249 309.315 443.697 308.461 444.252 307.48C444.849 306.456 445.382 305.453 445.852 304.472C446.321 303.491 446.556 302.723 446.556 302.168C446.556 301.613 446.257 301.336 445.66 301.336C444.849 301.336 443.996 301.784 443.1 302.68C442.246 303.533 441.393 304.643 440.54 306.008C439.686 307.373 438.876 308.803 438.108 310.296C437.34 311.789 436.678 313.197 436.124 314.52C435.569 315.8 435.164 316.781 434.908 317.464C434.652 318.104 434.289 318.509 433.82 318.68C433.35 318.851 432.838 318.936 432.284 318.936C431.772 318.936 431.281 319.021 430.812 319.192C431.409 317.827 431.9 316.717 432.284 315.864C432.668 315.011 433.073 314.157 433.5 313.304C433.926 312.408 434.438 311.213 435.036 309.72C435.377 308.952 435.761 308.077 436.188 307.096C436.614 306.072 436.977 305.091 437.276 304.152C437.617 303.171 437.788 302.403 437.788 301.848C437.788 301.208 437.574 300.888 437.148 300.888C436.636 300.888 436.124 301.208 435.612 301.848C435.1 302.488 434.63 303.213 434.204 304.024C433.82 304.792 433.5 305.411 433.244 305.88C432.604 307.117 431.964 308.333 431.324 309.528C430.684 310.723 429.958 311.875 429.148 312.984H429.084C428.956 312.984 428.806 312.941 428.636 312.856C428.508 312.771 428.465 312.707 428.508 312.664C429.233 311.512 429.916 310.36 430.556 309.208C431.238 308.056 431.857 306.904 432.411 305.752C432.881 304.856 433.393 303.917 433.948 302.936C434.502 301.912 435.142 301.059 435.868 300.376C436.593 299.693 437.425 299.352 438.364 299.352C438.79 299.352 439.281 299.459 439.836 299.672C440.433 299.928 440.732 300.504 440.732 301.4C440.732 301.869 440.646 302.445 440.476 303.128C440.305 303.811 440.07 304.579 439.772 305.432C440.881 303.853 442.054 302.509 443.292 301.4C444.529 300.248 445.66 299.672 446.684 299.672C448.305 299.672 449.116 300.44 449.116 301.976C449.116 302.915 448.838 304.067 448.284 305.432C448.113 305.901 447.793 306.648 447.324 307.672C446.897 308.653 446.449 309.763 445.98 311C445.553 312.195 445.169 313.347 444.828 314.456C444.486 315.565 444.316 316.483 444.316 317.208C444.316 317.976 444.55 318.36 445.02 318.36C445.318 318.36 445.702 318.232 446.172 317.976C446.684 317.677 447.281 317.208 447.964 316.568C449.201 315.459 450.353 314.051 451.42 312.344C452.529 310.637 453.83 308.355 455.324 305.496C455.324 305.411 455.366 305.368 455.452 305.368C455.58 305.368 455.708 305.432 455.836 305.56C455.964 305.688 455.985 305.795 455.9 305.88C454.364 308.867 452.956 311.363 451.676 313.368C450.438 315.331 449.18 316.824 447.9 317.848C446.662 318.829 445.276 319.32 443.74 319.32Z"
        fill="black" />
    <defs>

    </defs>
</svg>